<?xml version="1.0" encoding="utf-8"?>
<!-- Generator: Adobe Illustrator 26.0.0, SVG Export Plug-In . SVG Version: 6.00 Build 0)  -->
<svg version="1.1" id="Capa_1" xmlns="http://www.w3.org/2000/svg" xmlns:xlink="http://www.w3.org/1999/xlink" x="0px" y="0px"
	 viewBox="0 0 28 26" style="enable-background:new 0 0 28 26;" xml:space="preserve">
<style type="text/css">
	.st0{fill:none;stroke:#4DD6FF;stroke-width:2;stroke-miterlimit:10;}
	.st1{fill:#4DD6FF;}
</style>
<g>
	<path class="st0" d="M23.3,25H4.7c-1.9,0-3.5-1.6-3.5-3.5V9.3c0-1.9,1.6-3.5,3.5-3.5h18.6c1.9,0,3.5,1.6,3.5,3.5v12.2
		C26.8,23.4,25.2,25,23.3,25z"/>
	<path class="st0" d="M20.4,5.8H7.6V3c0-1.1,0.9-2,2-2h8.8c1.1,0,2,0.9,2,2V5.8z"/>
</g>
<g>
	<path class="st1" d="M10,17.7c0,1.1,0.6,2.1,1.3,2.7c0.8,0.6,1.7,0.8,2.7,0.8c0.9,0,1.9-0.2,2.7-0.8c0.8-0.6,1.4-1.5,1.3-2.7
		c0-0.6-0.1-1.2-0.4-1.6c-0.5-0.8-1.2-1.3-1.9-1.5c-1.1-0.3-2.1-0.4-2.8-0.7c-0.3-0.1-0.5-0.3-0.7-0.4c-0.1-0.1-0.2-0.3-0.2-0.8
		c0-0.5,0.2-0.8,0.5-1.1c0.3-0.3,0.9-0.4,1.5-0.4c0.6,0,1.1,0.2,1.5,0.4c0.3,0.3,0.5,0.5,0.5,1.1c0,0.6,0.4,1,1,1s1-0.4,1-1
		c0-1.1-0.6-2.1-1.3-2.7c-0.8-0.6-1.7-0.8-2.7-0.8c-0.9,0-1.9,0.2-2.7,0.8c-0.8,0.6-1.4,1.5-1.3,2.7c0,0.6,0.1,1.2,0.4,1.6
		c0.5,0.8,1.2,1.3,1.9,1.5c1.1,0.3,2.1,0.4,2.8,0.7c0.3,0.1,0.5,0.3,0.7,0.4c0.1,0.1,0.2,0.3,0.2,0.8c0,0.5-0.2,0.8-0.5,1.1
		c-0.3,0.3-0.9,0.4-1.5,0.4c-0.6,0-1.1-0.2-1.5-0.4c-0.3-0.3-0.5-0.5-0.5-1.1c0-0.6-0.4-1-1-1C10.4,16.7,10,17.1,10,17.7L10,17.7z"
		/>
	<path class="st1" d="M13,9.2v1c0,0.6,0.4,1,1,1s1-0.4,1-1v-1c0-0.6-0.4-1-1-1S13,8.6,13,9.2"/>
	<path class="st1" d="M13,20.2v1c0,0.6,0.4,1,1,1s1-0.4,1-1v-1c0-0.6-0.4-1-1-1S13,19.6,13,20.2"/>
</g>
</svg>
