<svg id="visual" viewBox="0 0 900 600" width="900" height="600" xmlns="http://www.w3.org/2000/svg" xmlns:xlink="http://www.w3.org/1999/xlink" version="1.1"><g><g transform="translate(866 7)"><path d="M0 -88.8L69.4 -55.4L86.6 19.8L38.5 80L-38.5 80L-86.6 19.8L-69.4 -55.4Z" fill="#415EB8"></path></g><g transform="translate(792 588)"><path d="M0 -70L54.7 -43.6L68.2 15.6L30.4 63.1L-30.4 63.1L-68.2 15.6L-54.7 -43.6Z" fill="#415EB8"></path></g><g transform="translate(319 502)"><path d="M0 -50L39.1 -31.2L48.7 11.1L21.7 45L-21.7 45L-48.7 11.1L-39.1 -31.2Z" fill="#415EB8"></path></g><g transform="translate(640 24)"><path d="M0 -52L40.7 -32.4L50.7 11.6L22.6 46.9L-22.6 46.9L-50.7 11.6L-40.7 -32.4Z" fill="#415EB8"></path></g></g></svg>