<svg id="visual" viewBox="0 0 900 600" width="900" height="600" xmlns="http://www.w3.org/2000/svg" xmlns:xlink="http://www.w3.org/1999/xlink" version="1.1"><g><g transform="translate(151 290)"><path d="M0 -100.4L78.5 -62.6L97.9 22.3L43.6 90.5L-43.6 90.5L-97.9 22.3L-78.5 -62.6Z" fill="#297EA6"></path></g><g transform="translate(539 530)"><path d="M0 -50L39.1 -31.2L48.7 11.1L21.7 45L-21.7 45L-48.7 11.1L-39.1 -31.2Z" fill="#297EA6"></path></g><g transform="translate(756 134)"><path d="M0 -53L41.4 -33L51.7 11.8L23 47.8L-23 47.8L-51.7 11.8L-41.4 -33Z" fill="#297EA6"></path></g><g transform="translate(445 21)"><path d="M0 -68L53.2 -42.4L66.3 15.1L29.5 61.3L-29.5 61.3L-66.3 15.1L-53.2 -42.4Z" fill="#297EA6"></path></g></g></svg>